<mxfile host="app.diagrams.net" agent="Mozilla/5.0 (Windows NT 10.0; Win64; x64) AppleWebKit/537.36 (KHTML, like Gecko) Chrome/131.0.0.0 Safari/537.36" version="26.0.6">
  <diagram id="Ht1M8jgEwFfnCIfOTk4-" name="Page-1">
    <mxGraphModel dx="2074" dy="1088" grid="1" gridSize="10" guides="1" tooltips="1" connect="1" arrows="1" fold="1" page="1" pageScale="1" pageWidth="1169" pageHeight="827" math="0" shadow="0">
      <root>
        <mxCell id="0" />
        <mxCell id="1" parent="0" />
        <mxCell id="AA3Ij_CwbAl-0nwDEhFx-20" value="" style="whiteSpace=wrap;html=1;aspect=fixed;dashed=1;fillColor=none;" vertex="1" parent="1">
          <mxGeometry x="281.76" y="310" width="170" height="170" as="geometry" />
        </mxCell>
        <mxCell id="AA3Ij_CwbAl-0nwDEhFx-21" value="Local Environment" style="text;html=1;align=center;verticalAlign=middle;whiteSpace=wrap;rounded=0;strokeColor=default;opacity=30;" vertex="1" parent="1">
          <mxGeometry x="281.76" y="310" width="120" height="30" as="geometry" />
        </mxCell>
        <mxCell id="UEzPUAAOIrF-is8g5C7q-75" value="AWS Cloud" style="points=[[0,0],[0.25,0],[0.5,0],[0.75,0],[1,0],[1,0.25],[1,0.5],[1,0.75],[1,1],[0.75,1],[0.5,1],[0.25,1],[0,1],[0,0.75],[0,0.5],[0,0.25]];outlineConnect=0;gradientColor=none;html=1;whiteSpace=wrap;fontSize=12;fontStyle=0;shape=mxgraph.aws4.group;grIcon=mxgraph.aws4.group_aws_cloud_alt;strokeColor=#232F3E;fillColor=none;verticalAlign=top;align=left;spacingLeft=30;fontColor=#232F3E;dashed=0;labelBackgroundColor=#ffffff;container=1;pointerEvents=0;collapsible=0;recursiveResize=0;" parent="1" vertex="1">
          <mxGeometry x="600" y="100" width="490" height="440" as="geometry" />
        </mxCell>
        <mxCell id="UEzPUAAOIrF-is8g5C7q-107" value="" style="rounded=0;whiteSpace=wrap;html=1;labelBackgroundColor=none;fillColor=none;dashed=1;container=1;pointerEvents=0;collapsible=0;recursiveResize=0;" parent="UEzPUAAOIrF-is8g5C7q-75" vertex="1">
          <mxGeometry x="30" y="60" width="430" height="360" as="geometry" />
        </mxCell>
        <mxCell id="AA3Ij_CwbAl-0nwDEhFx-1" value="" style="outlineConnect=0;dashed=0;verticalLabelPosition=bottom;verticalAlign=top;align=center;html=1;shape=mxgraph.aws3.bucket;fillColor=#E05243;gradientColor=none;" vertex="1" parent="UEzPUAAOIrF-is8g5C7q-107">
          <mxGeometry x="320" y="110" width="60" height="61.5" as="geometry" />
        </mxCell>
        <mxCell id="AA3Ij_CwbAl-0nwDEhFx-2" value="&lt;b&gt;S3 Bucket&lt;/b&gt;" style="text;html=1;align=center;verticalAlign=middle;whiteSpace=wrap;rounded=0;" vertex="1" parent="UEzPUAAOIrF-is8g5C7q-107">
          <mxGeometry x="320" y="172.5" width="60" height="30" as="geometry" />
        </mxCell>
        <mxCell id="AA3Ij_CwbAl-0nwDEhFx-3" value="" style="sketch=0;outlineConnect=0;fontColor=#232F3E;gradientColor=none;fillColor=#232F3D;strokeColor=none;dashed=0;verticalLabelPosition=bottom;verticalAlign=top;align=center;html=1;fontSize=12;fontStyle=0;aspect=fixed;pointerEvents=1;shape=mxgraph.aws4.json_script;" vertex="1" parent="UEzPUAAOIrF-is8g5C7q-107">
          <mxGeometry x="190" y="220" width="57" height="78" as="geometry" />
        </mxCell>
        <mxCell id="AA3Ij_CwbAl-0nwDEhFx-4" style="edgeStyle=orthogonalEdgeStyle;rounded=1;orthogonalLoop=1;jettySize=auto;html=1;entryX=0.5;entryY=0;entryDx=0;entryDy=0;entryPerimeter=0;curved=0;" edge="1" parent="UEzPUAAOIrF-is8g5C7q-107" source="AA3Ij_CwbAl-0nwDEhFx-3" target="AA3Ij_CwbAl-0nwDEhFx-1">
          <mxGeometry relative="1" as="geometry" />
        </mxCell>
        <mxCell id="AA3Ij_CwbAl-0nwDEhFx-7" value="&lt;b&gt;JSON Script&lt;/b&gt;" style="text;html=1;align=center;verticalAlign=middle;whiteSpace=wrap;rounded=0;" vertex="1" parent="UEzPUAAOIrF-is8g5C7q-107">
          <mxGeometry x="187" y="300" width="60" height="30" as="geometry" />
        </mxCell>
        <mxCell id="AA3Ij_CwbAl-0nwDEhFx-11" style="edgeStyle=orthogonalEdgeStyle;rounded=1;orthogonalLoop=1;jettySize=auto;html=1;curved=0;exitX=0.984;exitY=0.507;exitDx=0;exitDy=0;exitPerimeter=0;" edge="1" parent="UEzPUAAOIrF-is8g5C7q-107" source="AA3Ij_CwbAl-0nwDEhFx-14" target="AA3Ij_CwbAl-0nwDEhFx-3">
          <mxGeometry relative="1" as="geometry">
            <mxPoint x="30" y="140.79999999999995" as="sourcePoint" />
            <Array as="points">
              <mxPoint x="120" y="141" />
              <mxPoint x="120" y="259" />
            </Array>
          </mxGeometry>
        </mxCell>
        <mxCell id="AA3Ij_CwbAl-0nwDEhFx-13" value="eu-west-2" style="html=1;shape=mxgraph.infographic.flag;dx=30;dy=20;fillColor=#10739E;strokeColor=none;align=center;verticalAlign=top;fontColor=#ffffff;fontSize=14;fontStyle=1;shadow=0;spacingTop=5;" vertex="1" parent="UEzPUAAOIrF-is8g5C7q-107">
          <mxGeometry width="110" height="54" as="geometry" />
        </mxCell>
        <mxCell id="AA3Ij_CwbAl-0nwDEhFx-14" value="" style="aspect=fixed;sketch=0;html=1;dashed=0;whitespace=wrap;verticalLabelPosition=bottom;verticalAlign=top;fillColor=#2875E2;strokeColor=#ffffff;points=[[0.005,0.63,0],[0.1,0.2,0],[0.9,0.2,0],[0.5,0,0],[0.995,0.63,0],[0.72,0.99,0],[0.5,1,0],[0.28,0.99,0]];shape=mxgraph.kubernetes.icon2;prIcon=api" vertex="1" parent="UEzPUAAOIrF-is8g5C7q-107">
          <mxGeometry x="-50" y="100.75" width="83.33" height="80" as="geometry" />
        </mxCell>
        <mxCell id="AA3Ij_CwbAl-0nwDEhFx-10" value="&lt;b&gt;Data Processing&lt;/b&gt;" style="text;html=1;align=center;verticalAlign=middle;whiteSpace=wrap;rounded=0;" vertex="1" parent="UEzPUAAOIrF-is8g5C7q-107">
          <mxGeometry x="-74.34" y="177.75" width="130" height="30" as="geometry" />
        </mxCell>
        <mxCell id="UEzPUAAOIrF-is8g5C7q-90" value="" style="edgeStyle=orthogonalEdgeStyle;rounded=0;orthogonalLoop=1;jettySize=auto;html=1;endArrow=open;endFill=0;strokeWidth=2;" parent="1" target="UEzPUAAOIrF-is8g5C7q-80" edge="1">
          <mxGeometry relative="1" as="geometry">
            <mxPoint x="448" y="349" as="sourcePoint" />
          </mxGeometry>
        </mxCell>
        <mxCell id="UEzPUAAOIrF-is8g5C7q-91" value="" style="edgeStyle=orthogonalEdgeStyle;rounded=0;orthogonalLoop=1;jettySize=auto;html=1;endArrow=open;endFill=0;strokeWidth=2;" parent="1" target="UEzPUAAOIrF-is8g5C7q-81" edge="1">
          <mxGeometry relative="1" as="geometry">
            <mxPoint x="558" y="349" as="sourcePoint" />
          </mxGeometry>
        </mxCell>
        <mxCell id="UEzPUAAOIrF-is8g5C7q-92" value="" style="edgeStyle=orthogonalEdgeStyle;rounded=0;orthogonalLoop=1;jettySize=auto;html=1;endArrow=open;endFill=0;strokeWidth=2;" parent="1" source="UEzPUAAOIrF-is8g5C7q-81" edge="1">
          <mxGeometry relative="1" as="geometry">
            <mxPoint x="723" y="349" as="targetPoint" />
          </mxGeometry>
        </mxCell>
        <mxCell id="UEzPUAAOIrF-is8g5C7q-93" style="edgeStyle=orthogonalEdgeStyle;rounded=0;orthogonalLoop=1;jettySize=auto;html=1;endArrow=open;endFill=0;strokeWidth=2;" parent="1" target="UEzPUAAOIrF-is8g5C7q-85" edge="1">
          <mxGeometry relative="1" as="geometry">
            <Array as="points">
              <mxPoint x="762" y="480" />
            </Array>
            <mxPoint x="762" y="388" as="sourcePoint" />
          </mxGeometry>
        </mxCell>
        <mxCell id="UEzPUAAOIrF-is8g5C7q-96" style="edgeStyle=orthogonalEdgeStyle;rounded=0;orthogonalLoop=1;jettySize=auto;html=1;endArrow=open;endFill=0;strokeWidth=2;startArrow=open;startFill=0;" parent="1" target="UEzPUAAOIrF-is8g5C7q-86" edge="1">
          <mxGeometry relative="1" as="geometry">
            <Array as="points">
              <mxPoint x="638" y="560" />
              <mxPoint x="528" y="560" />
            </Array>
            <mxPoint x="638" y="528" as="sourcePoint" />
          </mxGeometry>
        </mxCell>
        <mxCell id="UEzPUAAOIrF-is8g5C7q-97" style="edgeStyle=orthogonalEdgeStyle;rounded=0;orthogonalLoop=1;jettySize=auto;html=1;endArrow=open;endFill=0;strokeWidth=2;startArrow=open;startFill=0;" parent="1" target="UEzPUAAOIrF-is8g5C7q-87" edge="1">
          <mxGeometry relative="1" as="geometry">
            <Array as="points">
              <mxPoint x="684" y="560" />
              <mxPoint x="859" y="560" />
            </Array>
            <mxPoint x="638" y="528" as="sourcePoint" />
          </mxGeometry>
        </mxCell>
        <mxCell id="AA3Ij_CwbAl-0nwDEhFx-15" value="" style="outlineConnect=0;dashed=0;verticalLabelPosition=bottom;verticalAlign=top;align=center;html=1;shape=mxgraph.aws3.android;fillColor=#FFD44F;gradientColor=none;" vertex="1" parent="1">
          <mxGeometry x="330" y="348" width="73.5" height="84" as="geometry" />
        </mxCell>
        <mxCell id="AA3Ij_CwbAl-0nwDEhFx-16" value="" style="aspect=fixed;sketch=0;html=1;dashed=0;whitespace=wrap;verticalLabelPosition=bottom;verticalAlign=top;fillColor=#2875E2;strokeColor=#ffffff;points=[[0.005,0.63,0],[0.1,0.2,0],[0.9,0.2,0],[0.5,0,0],[0.995,0.63,0],[0.72,0.99,0],[0.5,1,0],[0.28,0.99,0]];shape=mxgraph.kubernetes.icon2;kubernetesLabel=1;prIcon=api" vertex="1" parent="1">
          <mxGeometry x="325.09000000000003" y="90" width="83.33" height="80" as="geometry" />
        </mxCell>
        <mxCell id="AA3Ij_CwbAl-0nwDEhFx-17" value="" style="aspect=fixed;sketch=0;html=1;dashed=0;whitespace=wrap;verticalLabelPosition=bottom;verticalAlign=top;fillColor=#2875E2;strokeColor=#ffffff;points=[[0.005,0.63,0],[0.1,0.2,0],[0.9,0.2,0],[0.5,0,0],[0.995,0.63,0],[0.72,0.99,0],[0.5,1,0],[0.28,0.99,0]];shape=mxgraph.kubernetes.icon2;kubernetesLabel=1;prIcon=user" vertex="1" parent="1">
          <mxGeometry x="80" y="260" width="84.38" height="81" as="geometry" />
        </mxCell>
        <mxCell id="AA3Ij_CwbAl-0nwDEhFx-18" value="&lt;b&gt;Python Script&lt;/b&gt;" style="text;html=1;align=center;verticalAlign=middle;whiteSpace=wrap;rounded=0;" vertex="1" parent="1">
          <mxGeometry x="336.76" y="440" width="60" height="30" as="geometry" />
        </mxCell>
        <mxCell id="AA3Ij_CwbAl-0nwDEhFx-19" style="edgeStyle=orthogonalEdgeStyle;rounded=1;orthogonalLoop=1;jettySize=auto;html=1;entryX=0.005;entryY=0.63;entryDx=0;entryDy=0;entryPerimeter=0;curved=0;exitX=1.021;exitY=0.424;exitDx=0;exitDy=0;exitPerimeter=0;" edge="1" parent="1" source="AA3Ij_CwbAl-0nwDEhFx-20" target="AA3Ij_CwbAl-0nwDEhFx-14">
          <mxGeometry relative="1" as="geometry" />
        </mxCell>
        <mxCell id="AA3Ij_CwbAl-0nwDEhFx-22" style="edgeStyle=orthogonalEdgeStyle;rounded=1;orthogonalLoop=1;jettySize=auto;html=1;entryX=-0.003;entryY=0.42;entryDx=0;entryDy=0;entryPerimeter=0;curved=0;" edge="1" parent="1" source="AA3Ij_CwbAl-0nwDEhFx-17" target="AA3Ij_CwbAl-0nwDEhFx-20">
          <mxGeometry relative="1" as="geometry" />
        </mxCell>
        <mxCell id="AA3Ij_CwbAl-0nwDEhFx-25" value="" style="endArrow=classic;startArrow=classic;html=1;rounded=0;exitX=0.702;exitY=-0.178;exitDx=0;exitDy=0;exitPerimeter=0;" edge="1" parent="1" source="AA3Ij_CwbAl-0nwDEhFx-21">
          <mxGeometry width="50" height="50" relative="1" as="geometry">
            <mxPoint x="366.25" y="280" as="sourcePoint" />
            <mxPoint x="366.25" y="170" as="targetPoint" />
          </mxGeometry>
        </mxCell>
        <mxCell id="AA3Ij_CwbAl-0nwDEhFx-26" value="&lt;b&gt;Weather&lt;/b&gt;" style="text;html=1;align=center;verticalAlign=middle;whiteSpace=wrap;rounded=0;" vertex="1" parent="1">
          <mxGeometry x="310.76" y="69" width="110" height="30" as="geometry" />
        </mxCell>
      </root>
    </mxGraphModel>
  </diagram>
</mxfile>
